<svg xmlns="http://www.w3.org/2000/svg" xmlns:xlink="http://www.w3.org/1999/xlink" width="16" height="23" version="1.1" viewBox="0 0 16 23"><title>Coupon - KNC</title><desc>Created with Sketch.</desc><g id="Swap---Improve" fill="none" fill-rule="evenodd" stroke="none" stroke-width="1" opacity=".774"><g id="Swap-Promocode-1-Copy" fill-rule="nonzero" transform="translate(-1177.000000, -461.000000)"><g id="Group-4" transform="translate(348.000000, 424.000000)"><g id="Coupon---KNC" transform="translate(829.000000, 37.000000)"><g id="Group-4"><polygon id="Path-2" fill="#D5C9B6" points="14.923 6.334 6.004 11.384 14.595 16.722"/><polygon id="Path-4" fill="#D5C9B6" points="7.859 .8 5.201 11.955 15.086 6.287"/><polygon id="Path-5" fill="#D5C9B6" points="7.885 22.328 5.516 11.993 14.509 17.161"/><path id="Shape" fill="#D5C9B6" d="M7.16230922,0.667613989 L0.809241449,5.51505001 C0.533819435,5.72314701 0.374686717,6.04753352 0.374686717,6.39640201 L0.374686717,16.6727215 C0.374686717,17.0154695 0.533819435,17.3459766 0.809241449,17.5540736 L7.16230922,22.395389 C7.56014101,22.6952936 8.11098504,22.6952936 8.50269635,22.395389 L14.8557641,17.5479531 C15.1311861,17.339856 15.2903189,17.0154695 15.2903189,16.6666011 L15.2903189,6.39028152 C15.2903189,6.04753352 15.1311861,5.71702651 14.8557641,5.50892951 L8.50269635,0.667613989 C8.11098504,0.361588988 7.56014101,0.361588988 7.16230922,0.667613989 Z M5.9871753,12.3577691 L14.1519079,17.0399516 L8.00081624,21.7282546 L5.9871753,12.3577691 Z M8.00693672,1.33474849 L14.1519079,6.02305151 L5.9871753,10.705234 L8.00693672,1.33474849 Z M6.21975389,11.5315015 L14.4579324,6.80035501 L14.4579324,16.2565276 L6.21975389,11.5315015 Z M1.20707325,6.25563051 L7.0582609,1.793786 L4.96505361,11.5315015 L7.0582609,21.2692171 L1.20707325,16.8073726 L1.20707325,6.25563051 Z"/><polyline id="Path-3" stroke="#FBEFDE" points="14.976 6.06 5.247 11.817 14.976 16.969"/></g></g></g></g></g></svg>