<svg xmlns="http://www.w3.org/2000/svg" xmlns:xlink="http://www.w3.org/1999/xlink" width="24" height="24" version="1.1" viewBox="0 0 24 24"><title>qr-code</title><desc>Created with Sketch.</desc><g id="Swap---Orange" fill="none" fill-rule="evenodd" stroke="none" stroke-width="1"><g id="m/Transfer" fill="#666" transform="translate(-282.000000, -219.000000)"><g id="qr-code" transform="translate(282.000000, 219.000000)"><path id="Shape" fill-rule="nonzero" d="M0,24 L10.95,24 L10.95,13.05 L0,13.05 L0,24 Z M2.18983221,15.2401678 L8.75992809,15.2401678 L8.75992809,21.7931728 L2.18983221,21.7931728 L2.18983221,15.2401678 Z"/><rect id="Rectangle" width="2.25" height="2.25" x="4.35" y="17.4"/><rect id="Rectangle" width="2.25" height="2.25" x="17.4" y="21.75"/><rect id="Rectangle" width="2.25" height="2.25" x="21.75" y="21.75"/><polygon id="Path" points="21.81 15.24 19.62 15.24 19.62 13.05 13.05 13.05 13.05 24 15.24 24 15.24 17.43 17.43 17.43 17.43 19.62 24 19.62 24 13.05 24 13.05 21.81 13.05"/><path id="Shape" fill-rule="nonzero" d="M0,10.95 L10.95,10.95 L10.95,0 L0,0 L0,10.95 Z M2.18983221,2.18978427 L8.75992809,2.18978427 L8.75992809,8.75973633 L2.18983221,8.75973633 L2.18983221,2.18978427 Z"/><rect id="Rectangle" width="2.25" height="2.25" x="4.35" y="4.35"/><path id="Shape" fill-rule="nonzero" d="M13.05,0 L13.05,10.95 L24,10.95 L24,0 L13.05,0 Z M21.8098682,8.75973633 L15.2401318,8.75973633 L15.2401318,2.18978427 L21.8098682,2.18978427 L21.8098682,8.75973633 Z"/><rect id="Rectangle" width="2.25" height="2.25" x="17.4" y="4.35"/></g></g></g></svg>